PathFileType	4	(X/Y/Z)	E:\Qualisys_Data\Carbon_Farble_Plate\Data\Amateur_Runner\S2\T2\S2T2V13_c3d.trc
DataRate	CameraRate	NumFrames	NumMarkers	Units	OrigDataRate	OrigDataStartFrame	OrigNumFrames
200.000000	200.000000	4	39	mm	200.000000	121	325
Frame#	Time	LSHO			RSHO			LICST			RICST			LASIS			LHEEL			RASIS			LTROC			RTROC			SACR			LTH1			LSK4			LTH2			LTH3			RHM5			LSK2			LTH4			RTH1			LTOE			RTH2			RTH3			RTH4			LLEP			RLEP			LSK1			LSK3			RSK1			LHM5			RSK2			LFT1			RSK3			RSK4			LLME			RLME			RTOE			RHEEL			RFT1			RFT2			LFT2			
		X1	Y1	Z1	X2	Y2	Z2	X3	Y3	Z3	X4	Y4	Z4	X5	Y5	Z5	X6	Y6	Z6	X7	Y7	Z7	X8	Y8	Z8	X9	Y9	Z9	X10	Y10	Z10	X11	Y11	Z11	X12	Y12	Z12	X13	Y13	Z13	X14	Y14	Z14	X15	Y15	Z15	X16	Y16	Z16	X17	Y17	Z17	X18	Y18	Z18	X19	Y19	Z19	X20	Y20	Z20	X21	Y21	Z21	X22	Y22	Z22	X23	Y23	Z23	X24	Y24	Z24	X25	Y25	Z25	X26	Y26	Z26	X27	Y27	Z27	X28	Y28	Z28	X29	Y29	Z29	X30	Y30	Z30	X31	Y31	Z31	X32	Y32	Z32	X33	Y33	Z33	X34	Y34	Z34	X35	Y35	Z35	X36	Y36	Z36	X37	Y37	Z37	X38	Y38	Z38	X39	Y39	Z39	

122	0.605	-448.7830200195312	1437.95703125	-450.5770263671875	-438.46435546875	1432.325805664062	-132.2480621337891	-504.5457763671875	981.245849609375	-423.0653686523438	-469.4019165039062	969.75146484375	-119.7409133911133	-447.5621032714844	933.799560546875	-411.7348327636719	-815.8294067382812	139.3458709716797	-272.9943237304688	-410.9806823730469	925.0078125	-151.6761169433594	-581.9298095703125	860.85400390625	-409.9568786621094	-545.96630859375	861.9425659179688	-109.3410186767578	-576.9281005859375	1018.284973144531	-262.528076171875	-474.2860412597656	628.7888793945312	-421.1492004394531	-684.70654296875	299.3472595214844	-373.9083557128906	-555.8218994140625	629.241943359375	-416.7552795410156	-476.0636596679688	526.2515869140625	-396.9709167480469	-678.239501953125	215.5877990722656	-107.5853500366211	-630.6307373046875	380.5004272460938	-394.5204467773438	-559.39111328125	532.0280151367188	-389.34912109375	-332.8687438964844	653.4332885742188	-106.5354156494141	-586.67333984375	65.59918975830078	-296.5070190429688	-406.9326477050781	626.5361938476562	-103.015869140625	-300.8163452148438	558.1800537109375	-124.8584060668945	-378.6105346679688	534.1519165039062	-120.9083557128906	-527.4909057617188	472.3448486328125	-388.8108520507812	-342.7610778808594	508.3815612792969	-118.3473739624023	-564.6591796875	339.9982299804688	-382.4836120605469	-618.0687255859375	256.7449340820312	-364.6405029296875	-408.9985656738281	421.6707458496094	-120.512825012207	-646.0419921875	65.17422485351562	-355.8680114746094	-441.5085754394531	495.82373046875	-117.744270324707	-815.1941528320312	106.8315734863281	-252.1976470947266	-501.5762329101562	380.3607177734375	-125.3721237182617	-531.3704223632812	454.3769836425781	-125.5800170898438	-747.9833984375	135.9673614501953	-333.82080078125	-686.4041137695312	337.9605102539062	-145.8305511474609	-626.5166625976562	157.0617218017578	-159.4628143310547	-726.2603149414062	380.9540710449219	-206.3396301269531	-744.1679077148438	351.6014709472656	-234.8653564453125	-751.8002319335938	368.9892883300781	-181.5463256835938	-821.8404541015625	109.1306686401367	-306.0701904296875
123	0.61	-430.9749450683594	1442.988159179688	-449.842041015625	-425.2719116210938	1436.675537109375	-131.8804473876953	-487.0362548828125	984.8920288085938	-422.9389038085938	-452.7278442382812	974.4678344726562	-119.8829345703125	-431.1383361816406	936.9020385742188	-411.9238891601562	-812.674560546875	144.7773284912109	-273.5760192871094	-394.5968933105469	929.3198852539062	-152.0035095214844	-566.5294189453125	865.7301635742188	-409.1468200683594	-528.359619140625	867.1129760742188	-108.1493301391602	-560.0955810546875	1022.635314941406	-263.5693054199219	-462.7001953125	631.0975952148438	-420.4139709472656	-680.0508422851562	305.1247863769531	-374.7216186523438	-544.8281860351562	634.7420654296875	-416.7657165527344	-467.483154296875	529.855712890625	-396.7995300292969	-645.41796875	208.2271881103516	-108.1734085083008	-625.7037353515625	386.5571594238281	-395.1555786132812	-551.1163330078125	537.697265625	-389.6389465332031	-314.3192138671875	659.9069213867188	-107.2030639648438	-586.05029296875	65.49626922607422	-296.8336181640625	-387.9309997558594	632.1190795898438	-103.0984573364258	-280.8810424804688	565.2996215820312	-125.4221954345703	-359.0252380371094	540.5369262695312	-120.2909088134766	-520.7655029296875	477.282958984375	-389.4314575195312	-322.5941162109375	514.28369140625	-119.3125076293945	-559.6448974609375	345.1886596679688	-383.1557312011719	-613.5604248046875	262.229248046875	-366.3938293457031	-386.4705505371094	425.102294921875	-120.6612930297852	-644.9837646484375	65.69888305664062	-355.9485168457031	-422.2420349121094	497.3400573730469	-118.2921981811523	-811.9765625	112.5204544067383	-252.6432189941406	-477.4687805175781	379.5898742675781	-126.1279525756836	-510.2277221679688	452.4975891113281	-125.8683013916016	-743.9376220703125	141.1348876953125	-335.0562133789062	-660.1536865234375	329.7944946289062	-146.5853881835938	-591.8123779296875	153.2864227294922	-160.7796173095703	-702.8076171875	371.0126953125	-207.1658782958984	-719.3719482421875	340.0079345703125	-235.6031951904297	-727.464111328125	357.6105346679688	-182.3290252685547	-818.7212524414062	114.5039978027344	-306.767578125
124	0.615	-413.23193359375	1447.594116210938	-448.6995239257812	-411.6072692871094	1441.294677734375	-131.2324981689453	-469.3085632324219	988.6563720703124	-423.1002807617188	-435.521484375	979.4012451171876	-120.3241195678711	-414.2271728515625	940.0891723632812	-412.1115112304688	-808.0274658203125	150.8906097412109	-275.0812377929688	-377.6836853027344	934.0418701171876	-152.2928619384766	-550.6859741210938	870.80029296875	-408.4001770019531	-510.9013977050781	872.1619873046875	-106.876594543457	-543.2003784179688	1026.63818359375	-264.5301513671875	-450.9476013183594	634.6146240234375	-419.9874572753906	-674.81201171875	311.4950866699219	-375.7774353027344	-533.0032348632812	640.9657592773438	-417.6502380371094	-458.7026977539062	533.568359375	-396.8506164550781	-612.68603515625	200.9493713378906	-108.5361099243164	-620.1845092773438	392.3265075683594	-396.1072998046875	-542.0460815429688	543.3261108398438	-390.2825317382812	-296.1423034667969	666.60693359375	-107.8101806640625	-584.546875	65.85332489013672	-297.4325256347656	-369.5966796875	637.8400268554688	-103.4795989990234	-261.7007141113281	571.9005126953125	-126.948616027832	-338.2371215820312	546.0503540039062	-122.1922912597656	-513.8380737304688	482.0679931640625	-390.3713073730469	-303.0700073242188	519.7587280273438	-120.2134399414062	-554.69873046875	350.7112426757812	-385.2607727050781	-608.9872436523438	267.5063171386719	-368.1891479492188	-364.033935546875	428.1182861328125	-121.0268402099609	-643.8800048828125	66.57626342773438	-356.1200256347656	-402.4047241210938	498.5343933105469	-117.8182220458984	-808.9307250976562	118.6553497314453	-253.2844543457031	-453.1661987304688	379.0753479003906	-127.3289642333984	-489.3181762695312	450.3848266601562	-125.9126052856445	-739.3958129882812	146.6127319335938	-336.4265747070312	-633.7105712890625	321.65283203125	-147.5596313476562	-554.6786499023438	148.3818511962891	-160.7571411132812	-678.9595336914062	360.2262573242188	-208.2972412109375	-692.9801635742188	328.7647705078125	-236.5951080322266	-706.3986206054688	345.8626403808594	-184.3607177734375	-815.6570434570312	119.9908218383789	-307.2631530761719
125	0.62	-395.6873168945312	1452.553466796875	-447.4451904296875	-397.9195251464844	1445.884399414062	-131.0480041503906	-451.5689697265625	992.319580078125	-423.069580078125	-418.5281982421875	984.3228759765624	-120.3563613891602	-397.3872680664062	943.47216796875	-412.1439208984375	-803.2980346679688	156.7525024414062	-275.8747863769531	-360.9035339355469	938.8197631835938	-152.6851959228516	-534.9296875	875.801513671875	-407.586181640625	-493.1322631835938	877.4537963867188	-105.6891250610352	-526.444580078125	1031.322631835938	-265.1246643066406	-439.0083618164062	638.2286987304688	-419.6677551269531	-669.3049926757812	317.9623413085938	-377.0639343261719	-521.1766357421875	646.4475708007812	-418.0122680664062	-449.1517944335938	536.9491577148438	-396.6642150878906	-579.2642822265625	194.1770935058594	-109.3780899047852	-614.2573852539062	398.6421508789062	-397.3410339355469	-532.187744140625	549.6522216796875	-391.8964538574219	-277.9553833007812	672.9545288085938	-108.8500442504883	-583.0772094726562	66.23085021972656	-298.0816040039062	-350.7458190917969	643.424072265625	-103.294303894043	-242.6291809082031	579.227294921875	-127.9153900146484	-318.8623046875	552.3606567382812	-122.1232376098633	-505.8210754394531	487.2185668945312	-391.2788391113281	-283.9174499511719	524.9991455078125	-121.3735504150391	-548.4474487304688	356.1688232421875	-386.8005065917969	-604.3875732421875	274.4731140136719	-370.2495422363281	-342.1176147460938	430.4661560058594	-121.9156341552734	-642.4402465820312	66.9491195678711	-356.9291381835938	-383.4541931152344	499.3880004882812	-117.7086944580078	-804.8104858398438	125.3098068237305	-253.8941955566406	-429.3511352539062	377.8232421875	-128.0475158691406	-467.7848510742188	447.2728881835938	-126.1427764892578	-734.0784912109375	152.0305328369141	-338.283447265625	-607.050048828125	312.8698120117188	-148.5565643310547	-519.030029296875	144.7911529541016	-161.31591796875	-653.9402465820312	349.451904296875	-208.6919708251953	-667.19384765625	317.3026123046875	-237.4172821044922	-679.7753295898438	333.0367431640625	-184.4633636474609	-811.4562377929688	126.647216796875	-307.919189453125
